<svg width="45" height="45" viewBox="0 0 45 45" fill="none" xmlns="http://www.w3.org/2000/svg">
<path d="M23.6059 20.8918V21.3918H24.1059H44.4977V23.6059H24.1059H23.6059V24.1059V44.4977H21.3918V24.1059V23.6059H20.8918H0.5V21.3918H20.8918H21.3918V20.8918V0.5H23.6059V20.8918Z" fill="#FFA650" stroke="#FFA650"/>
<path d="M34.0584 37.3186L39.4678 42.7279L37.9025 44.2932L30.5743 36.965L37.9025 29.6368L39.4678 31.2021L34.0584 36.6114L33.7049 36.965L34.0584 37.3186Z" fill="#FFA650" stroke="#FFA650"/>
<path d="M14.4629 44.4942H14.4627H1.60647C1.41784 44.4941 1.23236 44.4458 1.06763 44.3539C0.902908 44.262 0.7644 44.1295 0.665253 43.969C0.566106 43.8086 0.509609 43.6254 0.501121 43.437C0.492636 43.2486 0.532422 43.0611 0.616704 42.8924C0.616722 42.8924 0.61674 42.8923 0.616758 42.8923L7.03603 30.0538C7.13945 29.8855 7.28374 29.7461 7.45558 29.6484C7.63226 29.5479 7.83202 29.4951 8.03526 29.4951C8.2385 29.4951 8.43825 29.5479 8.61493 29.6484C8.78678 29.7461 8.93106 29.8855 9.03449 30.0538L15.4538 42.8923C15.4538 42.8923 15.4538 42.8924 15.4538 42.8924C15.5381 43.0612 15.5779 43.2488 15.5694 43.4373C15.5608 43.6258 15.5042 43.809 15.405 43.9695C15.3057 44.13 15.167 44.2625 15.0022 44.3543C14.8373 44.4462 14.6517 44.4943 14.4629 44.4942ZM3.75922 41.5565L3.39741 42.2801H4.20643H11.8625H12.6715L12.3097 41.5565L8.48167 33.9005L8.03445 33.006L7.58724 33.9005L3.75922 41.5565Z" fill="#FFA650" stroke="#FFA650"/>
<path d="M30.2256 14.7747C29.7167 14.2659 29.4305 13.5759 29.4297 12.8562V3.21439C29.4305 2.49473 29.7167 1.80477 30.2256 1.29589C30.7345 0.787007 31.4244 0.500779 32.1441 0.5H41.7859C42.5056 0.500779 43.1955 0.787007 43.7044 1.29589C44.2134 1.80482 44.4996 2.49488 44.5003 3.21462V12.856C44.4996 13.5757 44.2134 14.2658 43.7044 14.7747C43.1955 15.2837 42.5054 15.5699 41.7857 15.5706H32.1443C31.4246 15.5699 30.7345 15.2837 30.2256 14.7747ZM32.1438 2.71412H31.6438V3.21412V12.8565V13.3565H32.1438H41.7878H42.2879L42.2878 12.8564L42.2862 3.21404L42.2861 2.71412H41.7862H32.1438Z" fill="#FFA650" stroke="#FFA650"/>
<path d="M13.3565 8.03531V8.03481C13.3551 6.62411 12.7941 5.27159 11.7966 4.27408C10.799 3.27656 9.44651 2.71554 8.03581 2.71413L8.03531 3.21413V2.71413C6.98288 2.71413 5.95408 3.02621 5.07902 3.61091C4.20396 4.19561 3.52193 5.02666 3.11918 5.99898C2.71643 6.9713 2.61105 8.04122 2.81637 9.07343C3.02169 10.1056 3.52849 11.0538 4.27267 11.798C5.01685 12.5421 5.96499 13.0489 6.9972 13.2543C8.02941 13.4596 9.09932 13.3542 10.0716 12.9514C11.044 12.5487 11.875 11.8667 12.4597 10.9916C13.0444 10.1165 13.3565 9.08774 13.3565 8.03531ZM8.03531 15.5706C6.54497 15.5706 5.0881 15.1287 3.84892 14.3007C2.60974 13.4727 1.64392 12.2958 1.07359 10.919C0.503265 9.54205 0.354041 8.02695 0.644792 6.56525C0.935544 5.10354 1.65321 3.76088 2.70704 2.70704C3.76088 1.65321 5.10354 0.935544 6.56525 0.644792C8.02695 0.354041 9.54205 0.503265 10.919 1.07359C12.2958 1.64392 13.4727 2.60974 14.3007 3.84892C15.1287 5.0881 15.5706 6.54497 15.5706 8.03531C15.5681 10.033 14.7734 11.9482 13.3608 13.3608C11.9482 14.7734 10.033 15.5681 8.03531 15.5706Z" fill="#FFA650" stroke="#FFA650"/>
</svg>
