<svg width="45" height="45" viewBox="0 0 45 45" fill="none" xmlns="http://www.w3.org/2000/svg">
<path d="M21.8316 11.4493C22.3401 10.8827 22.5406 9.99232 22.2756 9.20085C22.1109 8.72417 21.9319 8.25648 21.7313 7.80678L21.5093 7.3211C21.2945 6.8714 21.0581 6.4307 20.8075 6.00798C20.3992 5.32444 19.6831 5.09959 19.0385 5.36941L17.0189 6.20585C16.2526 5.41438 15.3717 4.76681 14.4263 4.32611L13.9894 1.71785C13.8534 0.881411 13.3377 0.215856 12.6645 0.116922C12.1918 0.035976 11.712 0 11.225 0H11.1749C10.6879 0 10.208 0.0359759 9.73534 0.107928C9.06213 0.206862 8.54648 0.881411 8.41041 1.70886L7.97354 4.32611C7.02102 4.77581 6.14728 5.41438 5.38097 6.20585L3.35418 5.3784C2.70962 5.10858 1.99344 5.33343 1.58522 6.01698C1.33456 6.43969 1.09822 6.8804 0.876202 7.3301L0.661348 7.80678C0.460818 8.25648 0.281774 8.72417 0.117052 9.20984C-0.147934 9.99232 0.0525962 10.8827 0.561083 11.4583L2.151 13.2391C2.07222 13.8417 2.02925 14.4713 2.02925 15.1099C2.02925 15.7485 2.07222 16.378 2.151 16.9896L0.561083 18.7704C0.0525962 19.3371 -0.147934 20.2275 0.117052 21.0189C0.281774 21.4956 0.460818 21.9633 0.661348 22.422L0.876202 22.8897C1.09106 23.3484 1.3274 23.7801 1.58522 24.2028C1.99344 24.8864 2.70962 25.1112 3.35418 24.8414L5.37381 24.0049C6.14012 24.7964 7.02102 25.444 7.96638 25.8847L8.40325 28.5019C8.53932 29.3384 9.05497 30.0039 9.72818 30.1029C10.208 30.1748 10.695 30.2108 11.1892 30.2108C11.6833 30.2108 12.1703 30.1748 12.6502 30.1029C13.3234 30.0039 13.839 29.3294 13.9751 28.5019L14.412 25.8847C15.3645 25.435 16.2382 24.7964 17.0046 24.0049L19.0242 24.8414C19.6687 25.1112 20.3849 24.8864 20.7931 24.2028C21.0438 23.7801 21.2801 23.3484 21.495 22.8897L21.717 22.404C21.9175 21.9543 22.0966 21.4866 22.2613 21.0099C22.5263 20.2275 22.3258 19.3371 21.8173 18.7615L20.2274 16.9806C20.3061 16.3691 20.3491 15.7395 20.3491 15.1009C20.3491 14.4623 20.3061 13.8327 20.2274 13.2212L21.8173 11.4403L21.8316 11.4493ZM7.75868 15.1099C7.75868 13.9649 8.12087 12.8668 8.76555 12.0572C9.41024 11.2476 10.2846 10.7928 11.1963 10.7928C12.1081 10.7928 12.9825 11.2476 13.6271 12.0572C14.2718 12.8668 14.634 13.9649 14.634 15.1099C14.634 16.2549 14.2718 17.3529 13.6271 18.1626C12.9825 18.9722 12.1081 19.427 11.1963 19.427C10.2846 19.427 9.41024 18.9722 8.76555 18.1626C8.12087 17.3529 7.75868 16.2549 7.75868 15.1099ZM35.883 44.2954C36.3342 44.9339 37.0433 45.1858 37.6735 44.853C38.0531 44.6461 38.4255 44.4213 38.7836 44.1695L39.1703 43.8906C39.5284 43.6208 39.8793 43.324 40.2159 43.0092C40.7602 42.4966 40.9393 41.5972 40.7244 40.7877L40.0584 38.2514C40.6886 37.2891 41.2043 36.1828 41.5552 34.9956L43.6393 34.447C44.3053 34.2761 44.8353 33.6285 44.9141 32.7831C44.9714 32.1805 45 31.5689 45 30.9483C45 30.3277 44.9714 29.7161 44.9141 29.1135C44.8353 28.2681 44.2981 27.6205 43.6393 27.4496L41.5552 26.892C41.1971 25.6958 40.6886 24.5985 40.0584 23.6362L40.7244 21.0999C40.9393 20.2904 40.7602 19.391 40.2159 18.8784C39.8793 18.5636 39.5284 18.2668 39.1703 17.988L38.7907 17.7181C38.4326 17.4663 38.0602 17.2415 37.6735 17.0346C37.0504 16.7018 36.3414 16.9537 35.883 17.5922L34.465 19.5889C33.978 19.49 33.4767 19.436 32.9682 19.436C32.4597 19.436 31.9584 19.49 31.4714 19.5889L30.0533 17.5922C29.6021 16.9537 28.8931 16.7018 28.2629 17.0346C27.8833 17.2415 27.5109 17.4663 27.1457 17.7181L26.7732 17.988C26.408 18.2578 26.0642 18.5546 25.7276 18.8784C25.1833 19.391 25.0043 20.2904 25.2191 21.0999L25.8852 23.6362C25.2549 24.5985 24.7393 25.7048 24.3884 26.892L22.3043 27.4317C21.6382 27.6025 21.1083 28.2501 21.0295 29.0955C20.9722 29.6981 20.9435 30.3097 20.9435 30.9303C20.9435 31.5509 20.9722 32.1625 21.0295 32.7651C21.1083 33.6105 21.6454 34.2581 22.3043 34.429L24.3884 34.9776C24.7465 36.1738 25.2549 37.2711 25.8852 38.2334L25.2191 40.7697C25.0043 41.5792 25.1833 42.4786 25.7276 42.9912C26.0642 43.306 26.408 43.6028 26.7732 43.8727L27.16 44.1515C27.5181 44.4033 27.8905 44.6282 28.2701 44.835C28.8931 45.1678 29.6021 44.916 30.0605 44.2774L31.4785 42.2807C31.9655 42.3797 32.4669 42.4336 32.9754 42.4336C33.4838 42.4336 33.9852 42.3797 34.4722 42.2807L35.8902 44.2774L35.883 44.2954ZM32.9682 26.6222C33.4196 26.6222 33.8667 26.7339 34.2837 26.9508C34.7008 27.1678 35.0798 27.4858 35.399 27.8866C35.7182 28.2875 35.9714 28.7634 36.1442 29.2872C36.3169 29.811 36.4059 30.3724 36.4059 30.9393C36.4059 31.5062 36.3169 32.0676 36.1442 32.5914C35.9714 33.1152 35.7182 33.5911 35.399 33.992C35.0798 34.3928 34.7008 34.7108 34.2837 34.9278C33.8667 35.1448 33.4196 35.2564 32.9682 35.2564C32.5168 35.2564 32.0697 35.1448 31.6527 34.9278C31.2356 34.7108 30.8566 34.3928 30.5374 33.992C30.2182 33.5911 29.965 33.1152 29.7922 32.5914C29.6194 32.0676 29.5305 31.5062 29.5305 30.9393C29.5305 30.3724 29.6194 29.811 29.7922 29.2872C29.965 28.7634 30.2182 28.2875 30.5374 27.8866C30.8566 27.4858 31.2356 27.1678 31.6527 26.9508C32.0697 26.7339 32.5168 26.6222 32.9682 26.6222Z" fill="#FFA650"/>
</svg>
